HIERARCHY
ROOT Joint1
{
	OFFSET 0.000000 0.000000 0.000000
	CHANNELS 6 Xposition Yposition Zposition Xrotation Yrotation Zrotation
	JOINT Joint2
	{
		OFFSET -0.000000 0.000000 1.456275
		CHANNELS 6 Xposition Yposition Zposition Xrotation Yrotation Zrotation
		JOINT Joint3
		{
			OFFSET -0.000000 0.000002 1.471446
			CHANNELS 6 Xposition Yposition Zposition Xrotation Yrotation Zrotation
			JOINT Joint4
			{
				OFFSET 0.625745 0.000000 0.917755
				CHANNELS 6 Xposition Yposition Zposition Xrotation Yrotation Zrotation
				JOINT Joint5
				{
					OFFSET -0.629534 0.000001 0.940221
					CHANNELS 6 Xposition Yposition Zposition Xrotation Yrotation Zrotation
					JOINT Joint6
					{
						OFFSET -0.000001 0.113772 1.960660
						CHANNELS 6 Xposition Yposition Zposition Xrotation Yrotation Zrotation
						JOINT Joint7
						{
							OFFSET -0.669733 -0.113771 0.388340
							CHANNELS 6 Xposition Yposition Zposition Xrotation Yrotation Zrotation
							End Site
							{
								OFFSET 0.005509 0.005509 0.438980
							}
						}
					}
				}
			}
		}
	}
}
MOTION
Frames: 12
Frame Time: 0.041667
0.000000 0.000000 0.000000 -0.000000 1.019410 41.737432 -0.000000 -0.000000 1.456275 0.000004 -55.532443 -0.000000 -0.000000 0.000002 1.471446 -0.000002 -1.133460 20.377839 0.625745 0.000000 0.917755 0.000006 113.719952 0.000006 -0.629533 0.000001 0.940221 -0.000003 1.709736 38.843136 -0.000001 0.113772 1.960661 -88.303868 100.288740 0.000012 -0.669733 -0.113771 0.388340 -0.002671 3.284750 91.299535 
0.000000 0.000000 0.000000 -0.000000 1.019410 40.253392 -0.000000 0.000000 1.456275 0.000001 -55.157384 -0.000004 -0.000000 0.000002 1.471446 0.000001 -1.133462 19.652392 0.625745 0.000001 0.917755 0.000006 114.477147 -0.000002 -0.629533 0.000001 0.940221 -0.000005 1.709740 37.461696 -0.000001 0.113772 1.960661 -88.303855 99.922116 0.000001 -0.669733 -0.113771 0.388340 -0.022864 3.303499 92.851791 
0.000000 0.000000 0.000000 -0.000000 1.019410 38.838884 -0.000000 0.000000 1.456275 -0.000001 -54.799892 0.000003 -0.000000 0.000002 1.471446 0.000004 -1.133457 18.960930 0.625745 0.000001 0.917756 0.000007 115.198886 -0.000002 -0.629533 0.000001 0.940221 -0.000000 1.709734 36.144965 -0.000000 0.113772 1.960660 -88.303855 99.572663 -0.000004 -0.669733 -0.113771 0.388340 -0.042571 3.320849 94.331346 
0.000000 0.000000 0.000000 -0.000000 1.019410 37.563356 -0.000000 0.000000 1.456275 0.000003 -54.477527 0.000001 -0.000000 0.000002 1.471446 0.000005 -1.133455 18.337410 0.625744 0.000000 0.917755 -0.000003 115.849680 -0.000000 -0.629534 0.000001 0.940221 -0.000004 1.709735 34.957612 -0.000001 0.113772 1.960660 -88.303862 99.257545 0.000025 -0.669733 -0.113772 0.388340 -0.060728 3.336060 95.665576 
0.000000 0.000000 0.000000 -0.000000 1.019410 36.467346 -0.000000 0.000000 1.456275 -0.000002 -54.200536 0.000002 -0.000000 0.000002 1.471446 -0.000001 -1.133459 17.801647 0.625745 0.000000 0.917755 0.000008 116.408908 -0.000000 -0.629534 0.000001 0.940221 0.000000 1.709738 33.937379 -0.000001 0.113772 1.960661 -88.303875 98.986783 0.000017 -0.669733 -0.113771 0.388339 -0.076611 3.348788 96.812044 
0.000000 0.000000 0.000000 -0.000000 1.019410 35.475716 -0.000000 -0.000000 1.456275 -0.000001 -53.949926 0.000002 -0.000000 0.000002 1.471446 -0.000001 -1.133456 17.316903 0.625745 0.000000 0.917755 0.000006 116.914862 -0.000002 -0.629534 0.000001 0.940221 -0.000001 1.709737 33.014293 -0.000001 0.113772 1.960661 -88.303855 98.741805 0.000003 -0.669733 -0.113771 0.388340 -0.091196 3.360028 97.849324 
0.000000 0.000000 0.000000 -0.000000 1.019410 34.484382 -0.000000 0.000000 1.456275 0.000000 -53.699381 -0.000001 -0.000001 0.000002 1.471446 0.000000 -1.133460 16.832308 0.625745 0.000000 0.917755 -0.000001 117.420678 -0.000004 -0.629533 0.000001 0.940221 0.000001 1.709738 32.091497 -0.000001 0.113772 1.960660 -88.303855 98.496894 0.000010 -0.669733 -0.113771 0.388340 -0.105977 3.371000 98.886318 
0.000000 0.000000 0.000000 -0.000000 1.019410 33.389281 -0.000000 0.000000 1.456275 -0.000001 -53.422618 0.000003 -0.000000 0.000002 1.471446 -0.000001 -1.133458 16.296985 0.625745 0.000001 0.917755 0.000004 117.979428 -0.000005 -0.629533 0.000001 0.940221 0.000000 1.709738 31.072098 -0.000001 0.113772 1.960661 -88.303848 98.226351 0.000013 -0.669733 -0.113771 0.388340 -0.122535 3.382809 100.031897 
0.000000 0.000000 0.000000 -0.000000 1.019410 32.115020 -0.000000 -0.000000 1.456275 -0.000004 -53.100568 -0.000002 -0.000000 0.000002 1.471446 0.000001 -1.133458 15.674082 0.625745 0.000001 0.917755 0.000006 118.629594 -0.000004 -0.629533 0.000001 0.940221 0.000002 1.709739 29.885920 -0.000000 0.113772 1.960661 -88.303855 97.911547 0.000001 -0.669733 -0.113771 0.388340 -0.142095 3.396125 101.364898 
0.000000 0.000000 0.000000 -0.000000 1.019410 30.700973 -0.000000 0.000000 1.456275 0.000000 -52.743202 -0.000001 -0.000001 0.000002 1.471446 -0.000000 -1.133461 14.982848 0.625745 0.000000 0.917755 0.000005 119.351081 -0.000002 -0.629534 0.000001 0.940221 -0.000003 1.709738 28.569635 -0.000000 0.113772 1.960660 -88.303848 97.562210 0.000029 -0.669733 -0.113771 0.388340 -0.164155 3.410373 102.844160 
0.000000 0.000000 0.000000 -0.000000 1.019410 29.215205 -0.000000 0.000000 1.456275 0.000003 -52.367702 0.000001 -0.000000 0.000002 1.471446 -0.000003 -1.133462 14.256556 0.625745 0.000000 0.917755 0.000008 120.109150 -0.000007 -0.629534 0.000001 0.940221 -0.000004 1.709738 27.186586 -0.000001 0.113772 1.960660 -88.303862 97.195156 0.000027 -0.669733 -0.113771 0.388340 -0.187729 3.424721 104.398465 
0.000000 0.000000 0.000000 -0.000000 1.019410 27.727008 -0.000000 0.000000 1.456275 0.000002 -51.991591 0.000000 -0.000001 0.000002 1.471446 -0.000002 -1.133461 13.529068 0.625745 0.000000 0.917755 -0.000003 120.868489 -0.000002 -0.629534 0.000001 0.940221 -0.000001 1.709736 25.801262 -0.000000 0.113772 1.960661 -88.303834 96.827501 0.000013 -0.669733 -0.113771 0.388340 -0.211719 3.438451 105.955352 
